<?xml version="1.0" encoding="UTF-8"?>
<svg width="48" height="48" xmlns="http://www.w3.org/2000/svg" viewBox="0 0 48 48">
  <path fill="#5865F2" d="M19.2 20.9c-1.1 0-2 1-2 2.2s.9 2.2 2 2.2c1.1 0 2-1 2-2.2s-.9-2.2-2-2.2zm9.6 0c-1.1 0-2 1-2 2.2s.9 2.2 2 2.2c1.1 0 2-1 2-2.2s-.9-2.2-2-2.2z"/>
  <path fill="#5865F2" d="M36.9 8H11.1C9.4 8 8 9.4 8 11.1v25.8c0 1.7 1.4 3.1 3.1 3.1h21.8l-1-3.4 2.5 2.3 2.3 2.1 4.1 3.6V11.1c0-1.7-1.4-3.1-3.1-3.1zm-7.3 20.9s-.7-.8-1.2-1.5c2.5-.7 3.4-2.2 3.4-2.2-.8.5-1.5.9-2.2 1.1-1 .4-1.8.7-2.7.8-1.8.3-3.5.2-4.9 0-1.1-.2-2-.5-2.8-.8-.4-.2-.9-.4-1.4-.6-.1 0-.2-.1-.3-.2-.2-.1-.3-.2-.3-.2s.9 1.5 3.3 2.2c-.6.7-1.3 1.6-1.3 1.6-4.2-.1-5.8-2.9-5.8-2.9 0-6.1 2.7-11.1 2.7-11.1 2.7-2 5.3-2 5.3-2l.2.2c-3.4 1-5 2.5-5 2.5s.4-.2 1.1-.6c2-.9 3.6-1.1 4.3-1.2h.3c1.2-.1 2.5-.2 3.9 0 1.8.2 3.7.7 5.7 1.8 0 0-1.5-1.4-4.7-2.4l.3-.3s2.6-.1 5.3 2c0 0 2.7 5 2.7 11.1 0 0-1.6 2.8-5.8 2.9z"/>
</svg>

</svg>
