<?xml version="1.0" encoding="UTF-8"?>
<svg width="48" height="48" viewBox="0 0 48 48" xmlns="http://www.w3.org/2000/svg" preserveAspectRatio="xMidYMid">
  <path fill="#5865F2" d="M24 4C13 4 4 13 4 24c0 9.3 6 17.2 14.3 20.1l-1-3.6c-2.5-.6-4.7-1.7-6.6-3.2 2.1 1.1 4.4 1.8 6.8 2.1 1.9.3 3.9.5 5.9.5s4-.2 5.9-.5c2.4-.3 4.7-1 6.8-2.1-1.9 1.5-4.1 2.6-6.6 3.2l-1 3.6C38 41.2 44 33.3 44 24c0-11-9-20-20-20zm-7.5 18c1.2 0 2.2 1.1 2.2 2.5s-1 2.5-2.2 2.5c-1.2 0-2.2-1.1-2.2-2.5s1-2.5 2.2-2.5zm15 0c1.2 0 2.2 1.1 2.2 2.5s-1 2.5-2.2 2.5c-1.2 0-2.2-1.1-2.2-2.5s1-2.5 2.2-2.5z"/>
</svg>
